<?xml version="1.0" standalone="no"?>
<!DOCTYPE svg PUBLIC "-//W3C//DTD SVG 20010904//EN"
 "http://www.w3.org/TR/2001/REC-SVG-20010904/DTD/svg10.dtd">
<svg version="1.0" xmlns="http://www.w3.org/2000/svg"
 width="1263.000000pt" height="1280.000000pt" viewBox="0 0 1263.000000 1280.000000"
 preserveAspectRatio="xMidYMid meet">
<metadata>
Created by potrace 1.15, written by Peter Selinger 2001-2017
</metadata>
<g transform="translate(0.000000,1280.000000) scale(0.100000,-0.100000)"
fill="#000000" stroke="none">
<path d="M9354 12765 c-124 -62 -325 -239 -483 -426 -81 -96 -73 -85 -131
-163 -50 -65 -47 -61 -111 -171 -26 -44 -69 -109 -96 -145 -27 -37 -52 -74
-56 -84 -4 -10 -16 -30 -28 -45 -28 -36 -86 -137 -95 -164 -3 -12 -14 -31 -24
-42 -23 -27 -90 -163 -90 -184 0 -10 -11 -32 -25 -51 -14 -19 -25 -42 -25 -52
0 -11 -11 -40 -25 -66 -14 -26 -25 -54 -25 -62 0 -8 -8 -33 -19 -55 -24 -50
-38 -91 -63 -180 -22 -79 -44 -131 -58 -140 -6 -3 -10 -26 -10 -50 0 -24 -4
-46 -9 -50 -6 -3 -21 -40 -35 -83 -29 -89 -72 -208 -86 -237 -5 -11 -14 -38
-19 -60 -5 -22 -22 -71 -36 -110 -15 -38 -38 -106 -52 -150 -34 -108 -38 -120
-95 -275 -27 -74 -56 -162 -64 -195 -8 -33 -23 -78 -33 -100 -10 -22 -44 -121
-76 -220 -31 -99 -61 -188 -66 -197 -5 -10 -9 -25 -9 -34 0 -9 -8 -31 -19 -48
-10 -17 -22 -52 -25 -79 -4 -26 -14 -59 -22 -75 -7 -15 -14 -34 -14 -43 0 -8
-9 -34 -20 -57 -11 -22 -20 -46 -20 -52 0 -19 -41 -132 -56 -155 -11 -17 -29
-25 -67 -30 -71 -10 -142 -28 -352 -90 -99 -30 -200 -59 -225 -65 -25 -6 -54
-15 -65 -20 -11 -5 -46 -16 -79 -25 -71 -20 -86 -11 -64 37 9 18 28 78 43 133
15 55 30 109 35 120 13 31 30 158 30 223 0 49 -5 66 -28 98 -43 59 -129 120
-233 165 -138 60 -196 72 -339 73 -153 1 -180 -10 -223 -94 -15 -30 -34 -60
-42 -66 -8 -6 -15 -18 -15 -26 0 -9 -9 -27 -20 -41 -11 -14 -20 -30 -20 -35 0
-5 -7 -15 -15 -22 -8 -7 -15 -24 -15 -39 0 -15 -4 -31 -9 -36 -5 -6 -21 -47
-36 -92 -14 -46 -31 -85 -36 -88 -5 -4 -9 -18 -9 -33 0 -15 -6 -38 -13 -52
-34 -67 -79 -299 -83 -430 -2 -90 -5 -106 -21 -112 -10 -4 -142 -42 -293 -83
-151 -42 -311 -86 -355 -100 -44 -13 -107 -30 -140 -38 -33 -9 -184 -50 -335
-92 -151 -42 -378 -103 -505 -136 -126 -34 -313 -83 -415 -111 -373 -99 -888
-234 -1370 -358 -129 -33 -253 -65 -275 -71 -22 -6 -65 -17 -95 -24 -30 -7
-68 -18 -85 -24 -52 -17 -355 -91 -457 -111 -54 -10 -102 -21 -107 -25 -17
-10 -292 -83 -359 -95 -58 -10 -77 -16 -137 -41 -11 -4 -39 -13 -62 -19 -31
-8 -52 -23 -82 -59 -23 -27 -41 -52 -41 -55 0 -3 -15 -27 -34 -53 -19 -27 -53
-84 -76 -127 -23 -44 -55 -99 -72 -122 -16 -23 -32 -60 -35 -84 l-6 -43 34 6
c68 13 239 26 459 37 124 5 335 16 470 24 135 7 261 14 280 14 19 1 62 4 95 7
33 2 140 7 238 11 155 5 177 4 177 -9 0 -25 41 -33 56 -11 36 53 51 55 72 11
l13 -27 338 0 c186 0 359 -3 385 -6 l47 -7 -7 -51 c-3 -28 -10 -61 -15 -74 -6
-17 -5 -24 6 -28 22 -9 65 27 120 100 l49 66 578 0 578 0 0 -90 c0 -67 3 -90
13 -90 18 0 68 55 110 121 l35 57 330 3 330 4 26 24 c26 25 28 25 99 12 39 -7
113 -19 162 -26 194 -30 194 -30 176 -99 -6 -25 -11 -58 -11 -73 0 -31 11 -36
200 -82 89 -22 338 -89 465 -126 50 -14 110 -30 135 -35 69 -13 221 -57 231
-67 5 -5 1 -19 -9 -33 -9 -14 -24 -50 -33 -80 -9 -30 -40 -122 -68 -205 -28
-82 -61 -179 -73 -215 -11 -36 -24 -69 -28 -75 -5 -5 -15 -35 -23 -65 -18 -67
-44 -139 -57 -162 -6 -10 -10 -26 -10 -35 0 -10 -6 -30 -14 -45 -8 -14 -17
-45 -21 -68 -4 -23 -13 -44 -21 -47 -8 -3 -14 -17 -14 -32 0 -25 -31 -125 -84
-271 -47 -127 -84 -236 -117 -340 -18 -58 -36 -112 -40 -120 -5 -8 -27 -87
-49 -175 -84 -328 -100 -387 -110 -405 -6 -10 -16 -61 -24 -112 -22 -151 -67
-362 -79 -377 -7 -7 -13 -40 -14 -72 -2 -33 -11 -103 -22 -157 l-20 -97 -156
-151 c-86 -82 -170 -157 -188 -167 -18 -9 -79 -32 -137 -51 -58 -19 -136 -47
-175 -61 -134 -50 -150 -55 -168 -55 -10 0 -25 -7 -33 -15 -9 -8 -24 -15 -35
-15 -10 0 -38 -9 -62 -19 -45 -21 -130 -51 -292 -105 -55 -18 -109 -37 -120
-43 -19 -10 -33 -15 -118 -44 -17 -6 -45 -17 -62 -24 -16 -7 -75 -27 -130 -44
-90 -29 -174 -60 -260 -96 -16 -7 -50 -18 -75 -25 -25 -8 -58 -21 -75 -30 -16
-10 -63 -26 -104 -36 -124 -31 -173 -92 -228 -287 -40 -143 -63 -234 -63 -256
l0 -24 167 7 c93 3 224 10 293 16 392 29 732 54 1100 80 228 17 462 35 520 40
58 6 129 10 158 10 l54 0 -6 -152 c-4 -84 -12 -193 -18 -242 -11 -84 -10 -89
9 -105 11 -9 23 -28 27 -43 4 -16 13 -28 22 -28 18 0 74 31 74 41 0 4 30 45
68 92 37 47 105 138 151 202 47 64 91 119 98 122 16 6 24 2 148 -71 104 -61
544 -320 750 -441 126 -74 273 -159 358 -208 18 -10 98 -58 180 -105 182 -107
215 -124 235 -120 40 7 160 317 170 435 4 50 1 66 -14 86 -11 14 -98 123 -195
244 -96 120 -195 243 -220 275 -46 59 -261 326 -493 612 -75 93 -153 192 -173
220 -20 28 -52 65 -71 81 l-34 30 24 45 c14 25 46 86 73 135 26 50 53 97 60
105 6 8 33 56 60 105 26 50 60 108 74 130 15 22 38 65 51 95 13 30 30 62 37
71 7 8 13 19 13 22 0 4 15 30 33 59 19 29 41 73 51 97 9 24 23 50 31 58 8 8
15 21 15 29 0 8 5 14 10 14 6 0 10 9 10 21 0 11 11 35 25 53 14 18 25 41 25
50 0 9 25 65 54 124 63 123 128 274 182 417 20 55 43 107 50 116 8 9 11 18 8
22 -6 6 39 154 61 197 7 14 21 52 30 85 10 33 25 76 35 95 9 19 20 50 23 67 9
46 174 507 199 557 11 22 39 70 62 106 63 99 65 104 75 125 5 12 16 26 24 33
8 7 25 38 38 70 37 92 59 125 75 111 24 -20 58 -2 79 42 17 37 22 40 50 36 61
-10 317 -57 570 -105 143 -28 302 -58 353 -67 50 -9 92 -21 92 -26 0 -18 60
-10 66 9 10 29 47 97 58 104 14 9 101 -11 181 -43 11 -4 32 -10 46 -13 18 -4
29 -14 33 -31 8 -30 29 -44 262 -169 99 -54 199 -114 221 -134 38 -35 41 -41
47 -114 12 -126 41 -140 90 -44 19 37 34 56 47 56 19 0 231 -111 260 -136 8
-8 21 -14 27 -14 6 0 32 -13 59 -29 109 -65 226 -130 345 -193 62 -33 79 -61
92 -148 16 -103 15 -101 49 -98 27 3 33 9 49 52 9 27 21 53 27 59 6 6 84 -32
217 -104 171 -93 216 -114 253 -115 42 -2 46 -4 49 -29 4 -33 27 -43 51 -21
16 15 23 12 100 -42 45 -31 98 -66 117 -77 18 -11 42 -27 52 -36 10 -8 24 -18
32 -21 14 -5 185 -117 345 -226 38 -26 119 -78 180 -117 161 -102 235 -154
235 -165 0 -6 14 -10 30 -10 39 0 45 14 65 165 15 114 28 175 61 275 8 25 14
53 14 63 0 10 -26 46 -58 80 -49 53 -339 378 -612 685 -41 47 -98 112 -126
146 -28 33 -74 86 -103 116 -29 30 -59 67 -67 82 -8 16 -18 28 -23 28 -10 0
-204 211 -376 410 -64 74 -159 180 -209 235 -51 55 -111 120 -132 145 -21 24
-102 114 -179 200 -77 85 -173 193 -213 240 -87 103 -197 226 -302 340 -43 47
-89 99 -101 115 -12 17 -40 48 -61 70 -33 35 -36 43 -25 58 7 10 41 25 79 33
55 13 71 21 92 49 14 19 26 36 26 40 0 3 8 18 19 33 40 59 57 91 97 182 54
126 139 384 160 490 17 88 29 277 20 314 -25 100 -263 225 -486 255 -164 23
-295 -15 -313 -91 -4 -15 -14 -33 -22 -42 -8 -8 -15 -19 -15 -25 0 -18 -46
-84 -80 -115 -62 -57 -119 -223 -92 -266 9 -15 7 -37 -9 -107 -31 -133 -31
-133 -38 -133 -13 0 -91 62 -91 72 0 5 -14 21 -31 35 -16 14 -45 49 -63 77
-18 28 -58 78 -88 111 -105 113 -180 200 -197 227 -9 14 -55 67 -103 117 -66
69 -92 91 -112 91 -33 0 -66 50 -66 99 0 19 -5 49 -12 67 -13 36 3 228 21 261
6 10 15 38 20 63 5 25 28 95 51 155 40 105 94 258 165 466 18 53 38 105 43
115 6 11 15 37 20 59 15 59 47 144 61 158 6 6 11 20 11 32 0 11 36 126 81 255
44 129 85 249 90 267 5 18 14 35 19 38 6 4 10 15 10 26 0 11 13 55 29 97 89
237 241 744 241 807 0 8 4 23 9 33 12 23 30 127 42 247 5 55 17 143 25 195 19
118 36 386 36 590 2 282 -34 536 -92 656 -44 91 -130 108 -246 49z m155 -19
c15 -8 33 -21 40 -30 43 -51 87 -281 95 -492 l5 -129 -14 90 c-16 100 -52 220
-70 239 -7 7 -56 22 -110 34 l-97 23 -37 -28 c-62 -47 -191 -175 -250 -246
-197 -242 -467 -674 -597 -958 -115 -253 -192 -471 -761 -2144 -122 -359 -152
-428 -257 -590 -60 -92 -80 -115 -88 -104 -8 11 -9 11 -4 -3 3 -10 -12 -55
-34 -100 -21 -46 -64 -159 -96 -252 -47 -137 -59 -165 -66 -146 -6 17 -11 20
-22 11 -18 -15 -217 -43 -286 -40 -30 1 -62 0 -70 -4 -30 -11 -139 -16 -145
-7 -3 6 -2 10 4 10 6 0 3 13 -6 28 -18 31 -11 82 10 82 26 0 67 25 64 40 -1
11 6 14 28 13 18 -1 25 1 17 5 -15 10 88 54 168 72 30 6 98 34 150 60 94 48
95 49 98 89 l3 39 -61 -14 c-74 -17 -100 -30 -100 -49 0 -8 -4 -15 -10 -15 -5
0 -10 7 -10 15 0 19 -24 20 -39 1 -6 -7 -21 -11 -34 -9 -12 3 -53 -3 -90 -11
-38 -9 -76 -16 -85 -16 -15 0 -15 2 -2 11 12 9 12 10 -3 5 -10 -3 -33 -6 -50
-7 -31 -1 -31 -1 -7 -9 20 -6 14 -8 -25 -8 -40 0 -292 -56 -351 -79 -9 -3 -14
2 -14 16 0 25 6 28 85 40 81 13 143 29 182 46 17 8 37 15 45 15 8 0 76 20 151
45 75 24 171 52 214 61 43 9 86 20 97 26 11 6 53 14 93 19 99 11 109 23 156
179 14 47 46 144 71 215 41 117 61 178 143 435 14 41 28 84 32 95 23 59 157
455 206 610 20 61 40 118 45 127 6 10 10 26 10 37 0 10 14 45 30 76 17 31 30
64 30 74 0 9 14 52 31 96 17 44 35 97 40 118 5 21 13 45 18 55 12 25 41 111
52 157 6 21 15 45 21 52 5 7 14 27 18 45 22 90 41 156 54 183 8 17 34 80 56
140 23 61 55 134 71 164 16 30 29 60 29 67 0 20 44 113 74 157 15 21 33 53 41
70 21 47 48 91 63 100 6 4 12 16 12 25 0 9 9 23 20 29 11 7 27 27 36 45 9 18
48 87 88 153 113 190 211 324 331 454 39 42 81 90 95 106 23 28 208 189 278
242 35 27 105 55 155 62 4 0 20 -5 36 -13z m-337 -1208 c-9 -9 -15 -9 -24 1
-9 10 -9 12 -1 7 6 -3 15 -1 18 5 4 5 10 8 13 4 3 -3 0 -11 -6 -17z m146 -26
c2 -7 -2 -10 -12 -6 -9 3 -16 11 -16 16 0 13 23 5 28 -10z m-40 -129 c-10 -2
-28 -2 -40 0 -13 2 -5 4 17 4 22 1 32 -1 23 -4z m-425 -1187 c8 -20 -20 -43
-35 -28 -14 14 -3 42 16 42 7 0 16 -6 19 -14z m-193 -440 c0 -3 -4 -8 -10 -11
-5 -3 -10 -1 -10 4 0 6 5 11 10 11 6 0 10 -2 10 -4z m-180 -185 c0 -6 -4 -13
-10 -16 -5 -3 -10 1 -10 9 0 9 5 16 10 16 6 0 10 -4 10 -9z m96 -48 c-10 -10
-19 5 -10 18 6 11 8 11 12 0 2 -7 1 -15 -2 -18z m104 -7 c0 -3 -4 -8 -10 -11
-5 -3 -10 -1 -10 4 0 6 5 11 10 11 6 0 10 -2 10 -4z m-765 -186 c3 -5 1 -10
-4 -10 -6 0 -11 5 -11 10 0 6 2 10 4 10 3 0 8 -4 11 -10z m-1943 -289 c124
-22 221 -54 313 -106 60 -34 133 -101 154 -142 14 -28 14 -100 0 -160 -19 -78
-39 -140 -34 -108 2 17 7 51 11 78 l6 47 -80 0 c-88 0 -211 28 -354 80 -101
37 -188 88 -253 149 l-47 43 17 39 c23 49 43 67 97 84 55 17 39 18 170 -4z
m2470 -93 c-8 -8 -9 -4 -5 13 4 13 8 18 11 10 2 -7 -1 -18 -6 -23z m-2725
-230 c-3 -8 -6 -5 -6 6 -1 11 2 17 5 13 3 -3 4 -12 1 -19z m-151 -90 c-4 -29
-13 -60 -21 -68 -7 -8 -19 -28 -25 -44 -20 -55 -22 -17 -2 46 43 133 60 156
48 66z m1094 -443 c0 -2 -10 -9 -22 -15 -22 -11 -22 -10 -4 4 21 17 26 19 26
11z m925 -20 c23 -19 26 -24 12 -25 -29 0 -89 29 -82 40 10 17 38 11 70 -15z
m1096 -125 c-8 -20 -10 -13 -10 41 -1 36 2 69 7 73 11 12 14 -87 3 -114z
m1469 -25 c110 -30 223 -80 280 -126 71 -57 102 -157 61 -198 -59 -59 -322
-18 -537 83 -97 46 -184 118 -184 153 0 31 42 86 80 106 47 24 172 16 300 -18z
m-1400 -35 c0 -5 -4 -10 -9 -10 -6 0 -13 5 -16 10 -3 6 1 10 9 10 9 0 16 -4
16 -10z m-47 -62 c30 -3 32 -6 40 -57 6 -42 19 -71 60 -129 28 -41 60 -82 70
-91 10 -9 38 -46 63 -82 42 -63 44 -70 44 -137 0 -64 -2 -71 -22 -78 l-23 -7
23 -8 c12 -5 22 -15 22 -24 0 -8 5 -15 10 -15 6 0 10 -4 10 -10 0 -17 -17 -11
-58 23 -23 17 -56 42 -74 55 -18 12 -69 50 -113 83 -44 33 -95 69 -112 80 -18
12 -33 27 -33 35 0 8 -4 14 -10 14 -10 0 -2 88 10 105 4 6 10 33 13 60 10 93
42 241 45 213 3 -22 9 -27 35 -30z m209 -51 c32 -37 56 -72 53 -78 -4 -5 1 -9
9 -9 9 0 16 -9 16 -20 0 -11 9 -28 20 -37 14 -13 16 -19 7 -25 -8 -5 -7 -8 4
-8 9 0 19 -8 22 -17 4 -10 14 -29 23 -43 10 -14 -16 8 -57 48 -41 39 -80 72
-87 72 -6 0 -12 10 -12 21 0 16 -5 20 -20 16 -15 -4 -20 0 -20 17 0 12 -20 44
-44 72 -43 48 -44 52 -29 73 15 22 16 22 35 4 12 -10 47 -49 80 -86z m-359 58
c1 -5 -13 -11 -30 -13 -31 -3 -42 6 -26 22 10 10 53 3 56 -9z m-3090 -55 c10
-21 17 -47 15 -57 -2 -12 2 -17 15 -15 19 3 37 -33 37 -77 0 -15 6 -33 12 -39
10 -10 10 -15 -1 -21 -7 -5 -10 -14 -7 -20 4 -6 -8 -4 -27 5 -46 22 -57 49
-57 145 0 72 -2 80 -17 75 -30 -9 -376 -105 -623 -172 -129 -36 -284 -79 -345
-96 -130 -36 -239 -65 -316 -83 -30 -8 -127 -34 -215 -59 -87 -24 -231 -63
-319 -86 -88 -22 -189 -50 -225 -60 -73 -22 -690 -182 -1140 -297 -162 -41
-299 -77 -303 -80 -5 -3 -55 -16 -111 -28 -133 -30 -1448 -362 -1478 -374 -13
-5 -30 -16 -37 -25 -22 -26 -34 -18 -14 9 23 31 56 42 328 109 121 30 254 64
295 76 41 12 129 34 195 50 127 29 408 101 665 169 85 23 191 50 235 60 44 10
115 30 159 45 43 14 90 26 105 26 27 0 96 21 107 33 4 4 22 7 41 7 18 0 49 6
68 14 19 8 56 18 82 22 26 3 53 10 58 14 6 4 24 10 40 13 17 3 75 17 130 32
55 14 121 30 147 36 26 5 60 16 75 24 15 8 37 15 48 15 11 0 52 10 90 21 67
20 107 29 188 44 21 4 40 12 43 16 3 5 18 9 34 9 16 0 66 13 112 29 46 16 101
32 123 35 22 4 63 14 90 22 28 9 66 21 85 26 19 6 69 19 110 29 41 10 95 25
120 33 25 8 81 22 125 32 44 9 85 21 90 25 6 4 44 15 85 24 41 9 82 20 91 24
8 5 49 16 90 26 67 16 122 32 247 71 23 8 53 14 65 14 13 0 27 4 33 9 5 5 29
14 54 19 25 6 70 18 100 27 30 9 71 20 90 25 19 5 51 13 70 19 19 5 71 19 115
30 44 11 81 24 83 30 7 22 28 9 45 -29z m1107 0 c0 -5 -5 -10 -11 -10 -5 0 -7
5 -4 10 3 6 8 10 11 10 2 0 4 -4 4 -10z m595 -30 c-4 -17 -9 -29 -12 -26 -3 2
-2 19 2 36 4 17 9 29 12 26 3 -2 2 -19 -2 -36z m-545 26 c0 -11 -19 -15 -25
-6 -3 5 1 10 9 10 9 0 16 -2 16 -4z m514 -140 c-3 -15 -8 -25 -11 -23 -2 3 -1
17 3 31 3 15 8 25 11 23 2 -3 1 -17 -3 -31z m2526 21 c0 -7 -7 -22 -15 -33
-13 -17 -14 -16 -4 14 11 33 19 41 19 19z m-46 -121 c-3 -15 -8 -25 -11 -23
-2 3 -1 17 3 31 3 15 8 25 11 23 2 -3 1 -17 -3 -31z m-4149 -121 c-18 -202
-29 -275 -56 -367 -33 -112 -49 -146 -89 -198 -15 -19 -39 -64 -53 -100 -71
-188 -81 -212 -84 -203 -2 5 19 79 46 163 51 161 96 334 131 505 21 103 68
283 78 299 3 5 11 1 19 -10 10 -14 12 -37 8 -89z m4230 85 c3 -5 1 -10 -4 -10
-6 0 -11 -11 -11 -25 0 -14 -4 -25 -10 -25 -5 0 -7 -7 -4 -15 4 -8 1 -15 -5
-15 -14 0 -14 14 0 63 10 37 22 46 34 27z m-1170 -277 c-31 -103 -63 -204 -70
-223 -8 -19 -21 -59 -30 -88 -10 -29 -19 -51 -21 -49 -2 2 22 87 55 188 32
101 71 228 87 283 16 54 30 94 32 88 2 -6 -22 -95 -53 -199z m-4170 -432 c-7
-44 -16 -88 -18 -98 -3 -10 -11 -38 -17 -62 -9 -34 -14 -41 -21 -30 -9 12 -12
11 -22 -4 -7 -10 -29 -37 -49 -60 -38 -41 -49 -82 -28 -103 7 -7 6 -22 -5 -47
-8 -20 -15 -44 -15 -54 0 -9 -34 -86 -76 -171 -41 -85 -73 -160 -71 -166 3 -7
2 -18 -2 -25 -14 -22 -22 98 -10 142 6 23 40 112 76 197 36 85 79 194 94 242
42 128 143 318 169 318 4 0 2 -36 -5 -79z m1334 42 c-1 -17 -3 -21 -6 -10 -6
25 -23 21 -24 -5 -1 -18 -2 -19 -6 -5 -5 18 12 47 28 47 5 0 8 -12 8 -27z
m-42 -95 c-3 -8 -6 -5 -6 6 -1 11 2 17 5 13 3 -3 4 -12 1 -19z m-15 -40 c-7
-7 -12 -8 -12 -2 0 14 12 26 19 19 2 -3 -1 -11 -7 -17z m2715 0 c-3 -8 -6 -5
-6 6 -1 11 2 17 5 13 3 -3 4 -12 1 -19z m-5356 -124 c-25 -117 -38 -147 -56
-141 -8 4 -28 -1 -44 -9 -26 -13 -29 -19 -21 -34 5 -10 19 -22 30 -25 24 -8
25 -24 5 -51 -17 -22 -20 -12 -4 19 10 21 10 21 -5 3 -9 -11 -19 -34 -22 -53
-3 -18 -10 -33 -16 -33 -5 0 -16 -16 -24 -35 -8 -20 -23 -44 -34 -55 -11 -11
-20 -28 -20 -39 0 -10 -7 -24 -15 -31 -8 -7 -15 -23 -15 -36 0 -13 -4 -24 -9
-24 -5 0 -11 -13 -14 -30 -8 -38 -27 -39 -27 -2 0 59 14 57 -390 60 -203 2
-370 5 -370 8 0 3 11 25 25 50 14 25 25 51 25 59 0 18 20 30 29 17 4 -7 12 -8
20 -2 8 4 20 6 26 4 7 -3 15 4 18 15 3 12 10 21 17 21 6 0 8 -4 5 -10 -4 -6
13 -11 42 -11 128 -4 174 -7 180 -12 3 -4 6 -17 6 -31 0 -24 0 -24 26 -9 14 9
32 23 38 31 10 12 20 13 50 5 21 -6 65 -18 98 -26 33 -8 78 -22 100 -30 35
-13 40 -19 38 -44 -2 -22 3 -17 24 27 61 124 86 178 108 235 43 114 115 243
169 303 11 13 22 19 24 14 1 -5 -6 -49 -17 -98z m5339 69 c-11 -17 -11 -17 -6
0 3 10 6 24 7 30 0 9 2 9 5 0 3 -7 0 -20 -6 -30z m-2784 -3 c-3 -16 -9 -43
-12 -60 -6 -25 -3 -31 20 -40 27 -10 31 -22 15 -55 -8 -17 -8 -15 -4 7 4 22 2
26 -11 21 -18 -7 -64 -98 -64 -127 0 -11 -6 -27 -14 -35 -15 -16 -36 -69 -63
-156 -25 -80 -40 -126 -66 -195 -13 -36 -27 -74 -31 -85 -4 -11 -11 -29 -16
-40 -8 -19 -9 -19 -9 2 -2 60 48 234 85 299 15 26 28 70 34 119 13 104 39 196
61 217 10 10 21 35 24 55 8 44 35 103 49 103 4 0 6 -13 2 -30z m4446 -32 c-23
-23 -12 -49 46 -111 31 -35 196 -220 367 -412 170 -193 368 -415 440 -495 71
-80 147 -165 169 -190 21 -25 76 -85 121 -135 46 -49 126 -138 177 -196 88
-101 531 -598 624 -701 34 -38 39 -48 25 -48 -20 0 -45 23 -35 32 3 3 -5 14
-18 25 -13 10 -28 27 -34 38 -5 10 -19 20 -29 21 -11 2 -21 8 -23 14 -2 6 -10
17 -18 24 -8 8 -14 19 -14 23 0 16 -148 163 -163 163 -11 0 -13 7 -9 22 3 14
1 19 -6 14 -8 -5 -10 -2 -6 9 5 11 2 14 -10 9 -9 -4 -16 -1 -16 6 0 7 -9 21
-21 31 -11 9 -20 20 -20 23 3 22 -1 27 -13 23 -9 -4 -17 2 -21 14 -4 10 -13
19 -22 19 -10 0 -13 6 -9 16 5 12 2 15 -9 10 -11 -4 -19 3 -25 19 -13 33 -51
85 -63 85 -5 0 -3 -7 4 -17 12 -14 12 -16 -1 -11 -8 2 -17 15 -18 29 -2 13
-13 29 -23 37 -10 7 -19 20 -19 29 0 14 -109 129 -136 143 -5 3 -8 8 -7 12 3
9 -53 66 -101 103 -19 15 -35 30 -33 33 1 4 -7 20 -17 35 -14 21 -21 25 -28
15 -6 -11 -10 -10 -17 2 -5 8 -7 18 -4 23 7 11 -27 48 -38 41 -5 -3 -9 2 -9
10 0 8 -12 28 -26 43 -15 15 -38 45 -51 67 -14 21 -54 65 -89 98 -35 33 -64
65 -64 72 -1 6 -23 29 -50 51 -27 22 -51 48 -54 57 -2 10 -13 18 -24 18 -15 0
-19 5 -15 20 3 11 1 20 -5 20 -5 0 -19 15 -31 33 -11 17 -24 32 -28 31 -4 0
-23 20 -40 45 -18 25 -33 42 -33 37 0 -5 -19 15 -42 45 -55 70 -88 105 -88 93
0 -5 -10 7 -23 27 -12 20 -39 51 -59 69 -21 17 -35 36 -32 41 3 5 0 9 -6 9
-11 0 -100 89 -100 100 0 9 -90 100 -99 100 -5 0 -14 -7 -21 -15 -7 -8 -27
-15 -44 -15 l-31 1 28 15 c15 8 25 19 22 25 -4 5 1 17 10 26 14 14 18 14 25 2
6 -9 8 -4 7 16 -2 18 3 35 13 42 19 14 28 7 12 -9z m-5705 -70 c-2 -13 -4 -5
-4 17 -1 22 1 32 4 23 2 -10 2 -28 0 -40z m4016 32 c-3 -11 -10 -23 -16 -27
-5 -3 -8 -2 -5 3 3 5 8 17 11 27 9 24 16 22 10 -3z m-3379 -80 c-13 -46 -28
-88 -33 -93 -9 -9 35 158 46 176 14 23 10 -7 -13 -83z m4990 66 c-3 -9 -10
-16 -15 -16 -5 0 -4 9 3 20 14 22 21 20 12 -4z m-4503 -123 c-45 -98 -41 -92
-34 -58 9 45 31 95 42 95 5 0 1 -17 -8 -37z m-1167 1 c3 -8 2 -12 -4 -9 -6 3
-10 10 -10 16 0 14 7 11 14 -7z m1296 -55 c-11 -24 -17 -33 -14 -19 9 41 28
84 31 73 2 -5 -6 -30 -17 -54z m-5273 -40 c-8 -19 -21 -40 -30 -48 -9 -7 -14
-17 -12 -22 5 -8 -33 -34 -40 -27 -2 2 17 34 42 71 48 72 64 82 40 26z m7946
-1 c-3 -18 -12 -42 -20 -53 -7 -11 -13 -32 -13 -47 0 -16 -4 -28 -10 -28 -5 0
-10 -9 -10 -20 0 -11 -5 -20 -11 -20 -12 0 -9 13 33 123 32 83 41 96 31 45z
m-3363 -64 c0 -8 -4 -12 -10 -9 -5 3 -10 13 -10 21 0 8 5 12 10 9 6 -3 10 -13
10 -21z m496 -76 c-4 -24 -11 -50 -17 -58 -10 -15 -9 -3 7 81 9 46 17 26 10
-23z m-2011 32 c8 -13 71 -13 97 1 25 13 35 5 18 -16 -10 -12 -10 -15 4 -15
21 0 58 19 68 34 5 7 14 3 28 -12 26 -27 50 -28 57 -2 6 24 19 26 27 4 4 -10
13 -13 26 -9 13 4 22 1 26 -8 3 -8 21 -18 40 -22 30 -5 39 -2 65 25 29 28 33
30 49 15 9 -8 31 -15 48 -15 22 0 32 -5 32 -15 0 -9 7 -32 15 -53 13 -29 18
-34 25 -22 8 12 11 11 16 -7 4 -13 10 -20 15 -17 5 3 9 0 9 -5 0 -6 -5 -11
-11 -11 -5 0 -8 -4 -5 -9 5 -7 -954 -8 -1033 -1 -32 3 -7 20 30 20 14 0 42 13
62 29 20 15 63 36 97 45 33 10 58 21 55 27 -4 5 6 9 22 9 15 1 44 9 63 20 41
22 47 23 55 10z m-1498 -24 c-3 -8 -11 -33 -17 -56 -8 -29 -16 -40 -27 -38
-21 4 -29 28 -9 28 9 0 19 15 26 40 6 22 16 40 21 40 6 0 9 -6 6 -14z m3042
-16 c21 -10 41 -26 44 -35 4 -8 18 -15 34 -15 27 0 61 -18 91 -47 11 -11 7
-12 -23 -8 -19 2 -40 7 -45 10 -6 4 -49 9 -96 11 -78 5 -86 3 -103 -17 -16
-20 -28 -22 -162 -26 -79 -2 -171 0 -204 5 -55 8 -58 9 -30 17 16 5 41 19 55
32 14 13 43 28 65 34 22 6 57 19 78 29 36 18 37 18 48 -2 9 -16 18 -19 47 -16
21 3 46 -1 57 -8 11 -7 36 -11 55 -10 32 1 35 5 38 34 2 17 5 32 8 32 3 0 22
-9 43 -20z m-2909 7 c0 -2 -7 -27 -15 -55 -15 -48 -17 -51 -32 -37 -14 15 -14
20 2 56 10 21 24 39 32 39 7 0 13 -1 13 -3z m860 -68 c-22 -55 -37 -79 -50
-79 -3 0 -7 7 -7 15 0 8 3 12 7 10 3 -2 19 26 35 61 34 77 45 71 15 -7z m1967
49 c-3 -8 -6 -5 -6 6 -1 11 2 17 5 13 3 -3 4 -12 1 -19z m-652 -48 c-8 -22
-19 -48 -24 -58 -20 -33 -12 12 9 56 26 53 33 54 15 2z m5048 -18 c-3 -23 -10
-42 -15 -42 -8 0 -5 23 9 73 8 32 12 14 6 -31z m-7435 16 c4 -22 -28 -27 -176
-27 -67 0 -168 -5 -223 -11 -56 -6 -129 -10 -162 -10 -34 1 -90 -2 -124 -7
-35 -5 -66 -6 -71 -1 -4 4 -21 4 -37 0 -39 -10 -208 -7 -228 4 -10 6 26 9 96
9 62 0 132 5 157 11 46 12 72 8 49 -7 -8 -5 -9 -9 -3 -9 5 0 14 4 20 9 5 5 45
12 89 15 44 3 102 8 129 12 30 4 51 3 55 -4 4 -7 28 -6 76 4 39 7 109 13 157
14 48 0 90 5 93 10 11 17 99 7 103 -12z m3357 -38 c3 -5 -1 -10 -9 -10 -9 0
-16 5 -16 10 0 6 4 10 9 10 6 0 13 -4 16 -10z m45 -14 c0 -3 -4 -8 -10 -11 -5
-3 -10 -1 -10 4 0 6 5 11 10 11 6 0 10 -2 10 -4z m-4439 -16 c-6 -3 -39 -7
-74 -7 -42 -1 -56 1 -42 7 24 10 132 10 116 0z m-176 -10 c-3 -5 -10 -10 -16
-10 -5 0 -9 5 -9 10 0 6 7 10 16 10 8 0 12 -4 9 -10z m8645 -6 c0 -2 -7 -4
-15 -4 -8 0 -15 4 -15 10 0 5 7 7 15 4 8 -4 15 -8 15 -10z m-8880 2 c0 -3 -4
-8 -10 -11 -5 -3 -10 -1 -10 4 0 6 5 11 10 11 6 0 10 -2 10 -4z m115 -6 c3 -5
-3 -10 -15 -10 -12 0 -18 5 -15 10 3 6 10 10 15 10 5 0 12 -4 15 -10z m5575
-59 c-7 -28 -16 -51 -21 -51 -4 0 -2 21 6 48 8 26 15 51 15 56 0 5 3 7 6 3 3
-3 1 -29 -6 -56z m3180 24 c0 -89 -58 -378 -123 -612 -19 -68 -30 -123 -26
-123 5 0 9 4 9 10 0 23 44 60 63 54 13 -4 17 -2 13 5 -4 6 -3 11 2 11 6 0 13
-7 16 -16 8 -20 89 -56 110 -48 10 4 22 -5 35 -27 29 -47 50 -52 84 -21 15 14
27 20 27 14 0 -7 -5 -12 -11 -12 -5 0 -8 -4 -5 -8 3 -5 -2 -21 -10 -37 -15
-30 -12 -61 6 -50 6 4 8 11 5 16 -4 5 5 9 19 9 14 0 28 5 31 11 4 6 13 8 21 5
17 -7 18 6 2 22 -15 15 5 17 32 2 15 -8 21 -6 29 7 11 20 10 21 39 -30 16 -27
22 -55 22 -97 0 -43 8 -75 30 -124 16 -36 27 -66 24 -66 -3 0 6 -14 20 -31 49
-58 30 -60 -67 -6 -51 29 -115 63 -142 77 -27 14 -55 30 -61 36 -7 6 -26 17
-43 24 -21 8 -31 19 -31 35 0 31 -72 62 -247 105 -23 6 -45 15 -48 21 -4 5
-15 7 -25 4 -18 -6 -6 41 70 280 30 92 35 165 16 203 -20 39 -13 59 26 67 23
6 28 10 21 23 -25 52 18 292 52 292 9 0 15 -10 15 -25z m-2580 -55 c0 -5 -5
-10 -11 -10 -5 0 -7 5 -4 10 3 6 8 10 11 10 2 0 4 -4 4 -10z m-47 -67 c-23
-49 -43 -81 -43 -65 0 17 43 102 52 102 4 0 0 -17 -9 -37z m-593 -38 c-15 -39
-23 -25 -8 16 6 18 13 29 15 23 2 -6 -1 -24 -7 -39z m3404 -89 c-25 -64 -48
-115 -50 -113 -2 2 17 56 43 120 26 64 48 115 50 113 2 -2 -17 -56 -43 -120z
m176 68 c0 -8 -4 -12 -10 -9 -5 3 -10 10 -10 16 0 5 5 9 10 9 6 0 10 -7 10
-16z m-3636 -41 c16 -13 38 -23 49 -23 38 0 97 -23 102 -40 6 -20 82 -53 91
-39 7 12 74 12 74 0 0 -6 -4 -13 -10 -16 -5 -3 -10 -11 -10 -17 0 -7 5 -6 15
2 9 7 26 10 42 5 27 -6 27 -6 8 9 -20 15 -20 15 3 16 15 0 22 6 22 20 0 11 5
20 11 20 5 0 7 -5 4 -10 -4 -6 -4 -24 0 -40 6 -29 9 -30 46 -24 35 6 39 4 39
-14 0 -11 8 -23 18 -25 9 -3 1 -6 -18 -7 -19 -1 -27 -4 -17 -7 14 -4 15 -8 7
-18 -8 -10 -4 -14 21 -17 33 -5 39 2 54 70 3 17 11 32 16 32 6 0 7 -9 4 -21
-4 -11 -8 -35 -10 -52 -1 -18 -8 -45 -14 -60 -15 -38 -14 -42 5 -26 13 11 14
9 8 -17 -4 -16 -10 -36 -15 -44 -7 -12 -8 -10 -9 8 0 12 -4 22 -8 22 -10 0
-85 -315 -107 -445 -10 -62 -73 -261 -199 -631 -269 -791 -294 -879 -341
-1169 -47 -290 -60 -459 -60 -785 0 -302 0 -306 26 -381 14 -41 37 -92 51
-113 22 -32 25 -43 16 -67 -5 -16 -8 -34 -5 -41 3 -8 6 -6 6 5 1 9 6 17 11 17
13 0 14 3 -15 -68 -28 -68 -29 -76 -15 -67 5 3 25 38 45 77 42 87 55 102 114
130 120 58 410 410 620 756 35 56 67 105 72 108 13 8 11 -13 -3 -28 -7 -8 -40
-67 -72 -132 -33 -65 -80 -153 -105 -195 -26 -42 -62 -105 -80 -141 -19 -36
-43 -76 -53 -89 -10 -13 -18 -29 -18 -35 0 -7 -14 -34 -31 -62 -71 -111 -99
-172 -99 -217 0 -36 5 -48 23 -60 13 -9 65 -69 115 -134 88 -114 216 -276 268
-338 14 -16 195 -241 402 -499 l377 -469 -1 -54 c-1 -52 -16 -85 -31 -70 -4 4
-1 13 5 19 7 7 12 21 12 33 -1 20 -1 20 -16 0 -15 -19 -15 -19 -12 10 2 17 6
32 9 35 13 10 -11 50 -30 50 -11 0 -23 5 -26 10 -3 6 -1 10 5 10 6 0 8 5 5 10
-4 6 -11 7 -17 4 -15 -10 -100 87 -94 108 2 11 -1 15 -10 11 -8 -3 -14 1 -14
8 -1 19 -35 59 -52 59 -28 0 -41 16 -29 38 7 14 8 23 1 27 -6 4 -8 10 -5 15 3
5 0 12 -6 16 -6 3 -15 0 -20 -7 -7 -11 -9 -12 -9 -1 0 21 -52 71 -67 65 -7 -3
-13 1 -13 10 0 8 5 17 11 19 7 2 -4 4 -25 4 -46 0 -62 14 -46 44 9 17 9 21 -2
19 -28 -6 -59 14 -78 51 -11 21 -29 42 -41 45 -16 5 -18 9 -9 15 10 6 7 15
-11 38 -13 17 -30 31 -36 31 -7 1 -13 6 -13 11 0 6 -7 10 -15 10 -8 0 -15 7
-15 15 0 8 -16 32 -35 54 -19 21 -35 46 -35 56 0 12 -6 16 -20 12 -15 -4 -20
0 -20 14 0 10 -4 19 -8 19 -19 0 -90 83 -96 111 -4 22 -16 34 -50 50 -41 19
-76 64 -76 97 0 5 -6 12 -13 15 -8 3 -21 20 -30 39 -9 18 -17 27 -17 21 0 -26
-20 -12 -20 15 -1 37 -41 84 -71 83 -65 -3 -85 -6 -91 -16 -5 -6 -8 -4 -8 5 0
9 5 21 12 28 6 6 9 14 6 18 -4 3 -13 -5 -21 -18 -60 -98 -206 -326 -331 -516
-112 -172 -167 -246 -226 -304 -65 -65 -84 -78 -111 -78 -31 0 -32 0 -13 18
19 16 74 128 74 149 0 5 11 20 25 33 17 16 22 27 16 38 -11 19 14 62 35 62 8
0 14 10 14 24 0 13 9 45 21 71 13 30 19 58 15 76 -4 20 0 34 13 46 21 21 55
83 48 89 -3 3 3 22 13 42 10 20 16 39 13 42 -3 3 -8 -1 -11 -9 -2 -7 -15 -25
-28 -40 -13 -14 -44 -66 -70 -116 -25 -49 -53 -95 -60 -101 -8 -7 -14 -16 -13
-20 4 -14 -23 -64 -34 -64 -5 0 -7 -11 -3 -23 8 -32 -15 -61 -50 -63 -16 -1
-31 -3 -33 -3 -3 -1 3 -7 13 -14 18 -13 18 -15 -1 -58 -11 -24 -34 -61 -52
-83 -17 -21 -31 -44 -32 -50 0 -6 -4 -2 -8 9 -4 11 -17 20 -27 20 -14 0 -25
16 -42 65 -21 60 -22 78 -18 215 3 83 12 179 20 215 8 36 27 124 41 195 14 72
35 164 46 205 23 81 41 259 27 275 -4 5 -9 -18 -9 -50 -1 -33 -5 -73 -9 -90
-6 -25 -8 -20 -9 28 -1 75 -24 78 -42 6 -12 -44 -15 -48 -23 -30 -12 27 -23
27 -31 0 -5 -15 -10 -18 -18 -10 -17 17 -46 13 -77 -9 -15 -11 -56 -24 -91
-29 -40 -5 -67 -14 -75 -26 -8 -10 -27 -17 -48 -18 -19 0 -37 -6 -40 -12 -9
-24 -105 -65 -150 -65 -27 0 -48 -6 -56 -15 -10 -12 -16 -13 -27 -4 -10 9 -17
9 -25 1 -7 -7 -21 -12 -31 -12 -13 0 -17 -5 -13 -15 4 -12 -4 -15 -41 -15 -27
0 -53 -6 -63 -15 -9 -8 -36 -16 -60 -19 -24 -2 -46 -8 -47 -13 -2 -5 -16 -8
-32 -5 -30 4 -91 -21 -91 -38 0 -6 -19 -10 -42 -10 -29 0 -49 -7 -65 -22 -21
-20 -27 -21 -55 -10 -34 12 -48 9 -48 -14 0 -8 -10 -14 -26 -14 -19 0 -25 -4
-20 -15 7 -20 -7 -19 -55 5 l-40 21 -27 -29 c-34 -37 -100 -61 -113 -41 -6 9
-9 10 -9 2 0 -6 -15 -15 -32 -18 -18 -4 -38 -12 -45 -17 -7 -5 -21 -7 -31 -4
-11 4 -24 0 -31 -8 -6 -8 -21 -12 -31 -9 -12 3 -22 -1 -26 -10 -3 -10 -29 -21
-62 -28 -32 -7 -69 -18 -84 -26 -15 -7 -34 -10 -42 -7 -9 3 -16 1 -16 -6 0 -6
-5 -8 -11 -4 -7 4 -30 -2 -53 -13 -82 -41 -95 -45 -120 -39 -16 4 -30 1 -40
-10 -9 -8 -20 -13 -25 -10 -5 3 -14 -1 -21 -9 -7 -8 -16 -12 -21 -9 -5 3 -9
-4 -9 -15 0 -12 -5 -21 -11 -21 -6 0 -8 9 -4 21 6 16 4 20 -6 13 -11 -6 -11
-4 0 10 8 9 21 14 30 11 13 -5 13 -4 4 6 -16 16 1 39 28 39 10 0 20 4 23 9 3
5 18 12 32 15 42 11 294 105 352 132 29 13 60 24 70 24 9 0 37 10 62 21 25 12
72 29 105 39 71 21 250 86 267 96 6 4 102 38 212 77 486 168 689 239 740 261
21 9 47 16 57 16 11 0 93 73 193 170 l174 171 16 92 c27 149 66 344 91 457 13
58 28 132 35 165 16 80 58 259 75 315 8 25 21 74 31 110 32 120 104 360 123
405 4 11 39 115 77 230 37 116 78 234 91 264 13 29 23 62 23 73 0 11 7 32 15
46 8 15 24 61 36 102 11 41 27 89 35 105 15 35 69 189 89 255 7 25 32 97 55
160 23 63 50 144 59 180 10 36 30 94 45 130 16 36 33 84 39 108 6 23 14 42 19
42 4 0 8 5 8 10 0 6 -15 10 -32 10 -39 0 -63 13 -54 29 4 6 2 11 -3 11 -6 0
-11 -4 -11 -10 0 -5 -5 -10 -11 -10 -5 0 -7 6 -3 13 6 8 3 8 -9 -1 -12 -11
-24 -11 -49 -3 -53 17 -287 79 -328 87 -14 2 -34 8 -45 13 -11 5 -32 13 -47
19 -19 8 -26 16 -22 27 3 8 1 15 -5 15 -6 0 -11 -8 -12 -17 0 -11 -2 -13 -6
-5 -3 7 -2 20 1 28 10 27 163 16 200 -13z m-214 -14 c0 -6 -4 -7 -10 -4 -5 3
-10 11 -10 16 0 6 5 7 10 4 6 -3 10 -11 10 -16z m3958 -17 c8 -12 10 -22 4
-22 -5 0 -17 12 -27 26 -11 17 -13 25 -4 22 7 -2 19 -14 27 -26z m-3148 -31
c-10 -37 -30 -65 -30 -42 0 17 32 92 37 87 2 -2 -1 -22 -7 -45z m35 7 c-10
-50 -38 -138 -42 -134 -5 5 38 166 44 166 3 0 2 -15 -2 -32z m3167 -50 c-8
-17 -11 -18 -11 -7 -1 9 -8 20 -17 23 -13 5 -14 9 -3 22 11 13 14 13 27 0 12
-12 13 -20 4 -38z m84 -40 c48 -35 105 -92 115 -113 9 -18 9 -19 -4 -2 -8 9
-19 17 -26 17 -6 0 -11 7 -11 15 0 9 -6 12 -15 9 -10 -4 -33 12 -65 45 -50 52
-47 69 6 29z m-1881 -70 c-4 -29 -10 -57 -15 -61 -4 -4 -3 14 1 40 4 26 8 54
8 61 1 6 4 12 7 12 3 0 3 -24 -1 -52z m2170 -131 c-11 -126 -25 -208 -61 -362
-35 -150 -102 -396 -109 -404 -3 -2 -11 1 -18 8 -12 9 -12 17 4 49 10 20 30
96 45 167 14 71 29 134 33 140 20 26 43 105 45 155 7 139 41 334 58 324 5 -3
6 -38 3 -77z m-125 63 c0 -5 -4 -10 -10 -10 -5 0 -10 5 -10 10 0 6 5 10 10 10
6 0 10 -4 10 -10z m-500 -85 c-15 -40 -21 -27 -7 18 7 21 13 32 15 24 2 -7 -2
-26 -8 -42z m-1590 -41 c-28 -105 -38 -131 -56 -131 -17 0 -17 1 -5 47 6 19
15 55 21 79 8 29 14 40 20 32 5 -9 12 -2 20 23 21 66 21 31 0 -50z m505 44
c-4 -18 -12 -37 -17 -43 -7 -7 -8 -2 -3 15 3 14 9 33 11 43 9 30 16 18 9 -15z
m-29 -114 c-4 -14 -9 -24 -12 -21 -3 2 -2 17 2 31 3 15 9 25 11 22 3 -3 2 -17
-1 -32z m-561 -13 c-3 -12 -10 -21 -15 -21 -5 0 -4 11 2 25 13 29 23 26 13 -4z
m1721 -37 c-4 -20 -10 -34 -12 -31 -3 3 -2 21 2 41 3 21 9 35 11 32 3 -3 2
-21 -1 -42z m-1259 -1 c-3 -10 -5 -4 -5 12 0 17 2 24 5 18 2 -7 2 -21 0 -30z
m-295 10 c8 -10 18 -26 22 -37 6 -16 3 -18 -26 -12 -18 4 -39 13 -48 21 -13
13 -12 15 5 16 13 0 15 3 6 6 -11 5 -11 7 0 14 20 12 24 11 41 -8z m265 -5
c-3 -8 -6 -5 -6 6 -1 11 2 17 5 13 3 -3 4 -12 1 -19z m218 -29 c5 -5 22 -9 38
-9 18 0 26 -4 21 -11 -4 -7 -19 -8 -38 -4 -17 3 -45 8 -63 11 -47 9 -52 34 -5
27 20 -3 41 -10 47 -14z m1735 1 c0 -5 -5 -10 -11 -10 -5 0 -7 5 -4 10 3 6 8
10 11 10 2 0 4 -4 4 -10z m-1954 -25 c-3 -8 -1 -15 5 -15 5 0 12 7 15 15 6 15
44 22 44 8 0 -5 -9 -19 -19 -32 -16 -20 -23 -22 -60 -16 -53 9 -76 41 -33 48
52 8 54 7 48 -8z m-159 -1 c-3 -3 -12 -4 -19 -1 -8 3 -5 6 6 6 11 1 17 -2 13
-5z m313 -14 c0 -6 30 -10 69 -10 78 0 101 -6 101 -26 0 -9 6 -11 18 -7 15 6
15 5 3 -10 -9 -12 -10 -17 -2 -17 6 0 14 7 17 15 8 20 24 19 24 -1 0 -8 5 -12
10 -9 12 7 13 -5 2 -21 -5 -8 -22 -9 -57 -3 -27 5 -68 12 -90 15 -22 4 -45 11
-52 16 -6 5 -31 9 -55 9 -24 0 -51 3 -61 6 -18 5 -17 6 4 29 22 24 69 33 69
14z m283 -91 c18 -20 18 -21 -5 -14 -29 9 -31 11 -23 24 8 14 8 14 28 -10z
m237 -41 c0 -16 -3 -19 -11 -11 -6 6 -8 16 -5 22 11 17 16 13 16 -11z m-70 2
c0 -5 -7 -10 -15 -10 -8 0 -15 5 -15 10 0 6 7 10 15 10 8 0 15 -4 15 -10z
m1680 -21 c0 -4 -7 -9 -15 -13 -8 -3 -15 -1 -15 3 0 5 -3 17 -6 26 -6 15 -4
15 15 4 11 -8 21 -17 21 -20z m559 29 c-2 -2 -20 -16 -39 -33 l-35 -30 29 33
c17 17 34 32 40 32 5 0 7 -1 5 -2z m53 -69 c3 -35 2 -38 -9 -23 -14 19 -17 47
-6 57 10 11 11 9 15 -34z m-43 -1 c-1 -24 -3 -27 -6 -10 -2 12 -12 22 -21 22
-15 0 -15 2 -2 10 25 16 30 12 29 -22z m-465 -42 c27 -22 27 -24 9 -30 -11 -4
-27 -4 -36 0 -20 7 -68 69 -60 77 7 8 49 -15 87 -47z m-384 -6 c0 -5 -4 -10
-10 -10 -5 0 -10 5 -10 10 0 6 5 10 10 10 6 0 10 -4 10 -10z m930 -4 c0 -2 -7
-9 -15 -16 -13 -11 -14 -10 -9 4 5 14 24 23 24 12z m30 -16 c0 -5 -5 -10 -11
-10 -5 0 -7 5 -4 10 3 6 8 10 11 10 2 0 4 -4 4 -10z m-1140 -22 c0 8 18 -2 44
-22 26 -22 54 -36 70 -36 16 0 36 -10 50 -25 13 -14 30 -25 38 -25 19 0 60
-35 51 -44 -3 -3 8 -6 26 -6 24 0 34 -5 38 -20 3 -11 11 -20 18 -20 7 0 18 -7
25 -15 7 -8 29 -20 50 -26 21 -6 51 -22 66 -36 29 -24 29 -24 4 -18 -23 6 -23
5 -7 -8 9 -8 17 -21 17 -30 0 -9 10 -19 23 -22 20 -5 22 -12 23 -76 1 -55 7
-82 31 -129 16 -33 28 -60 26 -60 -12 0 -237 120 -298 159 -22 14 -71 41 -110
61 -113 59 -207 111 -250 139 -22 14 -41 26 -43 27 -4 2 46 154 63 191 9 17
15 35 14 40 -4 22 2 25 16 7 9 -12 14 -14 15 -6z m1135 -33 c-16 -14 -34 -25
-40 -25 -5 0 4 11 20 25 17 13 35 24 40 24 6 0 -3 -11 -20 -24z m-1020 -5 c3
-5 -1 -10 -9 -10 -8 0 -18 5 -21 10 -3 6 1 10 9 10 8 0 18 -4 21 -10z m1095
-3 c0 -2 -12 -14 -27 -28 l-28 -24 24 28 c23 25 31 32 31 24z m-490 -42 c7 -8
8 -15 2 -15 -5 0 -15 7 -22 15 -7 8 -8 15 -2 15 5 0 15 -7 22 -15z m170 -114
c0 -121 -6 -163 -56 -374 -19 -81 -32 -152 -29 -157 3 -6 -6 -10 -20 -10 -17
0 -24 4 -19 11 13 21 24 84 39 214 9 72 20 132 25 133 17 6 12 62 -5 62 -19 0
-19 13 -1 48 7 15 16 47 20 72 10 66 28 120 37 114 5 -3 9 -54 9 -113z m310
84 c-7 -8 -17 -15 -23 -15 -5 0 -2 9 8 20 21 23 35 19 15 -5z m52 -7 c-9 -9
-12 -7 -12 12 0 19 3 21 12 12 9 -9 9 -15 0 -24z m-507 2 c-3 -5 -11 -10 -16
-10 -6 0 -7 5 -4 10 3 6 11 10 16 10 6 0 7 -4 4 -10z m-912 -112 c12 -11 15
-16 7 -12 -28 15 -40 12 -40 -9 -1 -40 -18 4 -21 53 -2 31 1 44 9 43 7 -2 13
3 14 10 1 6 3 -6 5 -27 3 -24 13 -46 26 -58z m-2453 2 c0 -5 -5 -10 -11 -10
-5 0 -7 5 -4 10 3 6 8 10 11 10 2 0 4 -4 4 -10z m2440 -64 c0 -3 -4 -8 -10
-11 -5 -3 -10 -1 -10 4 0 6 5 11 10 11 6 0 10 -2 10 -4z m1165 -26 c3 -5 1
-10 -4 -10 -6 0 -11 5 -11 10 0 6 2 10 4 10 3 0 8 -4 11 -10z m-85 -140 c0 -5
-5 -10 -11 -10 -5 0 -7 5 -4 10 3 6 8 10 11 10 2 0 4 -4 4 -10z m12 -149 c9
-10 24 -23 33 -29 15 -8 16 -14 6 -42 -14 -41 -14 -70 -1 -70 6 0 10 8 10 18
0 51 68 106 84 67 3 -8 12 -15 20 -15 8 0 21 -8 28 -18 7 -10 28 -25 47 -34
19 -9 28 -18 22 -22 -16 -11 -13 -26 4 -20 8 4 17 -1 21 -10 5 -13 9 -14 20
-5 11 9 15 8 20 -5 3 -9 12 -16 18 -16 7 0 20 -6 31 -13 17 -13 17 -16 1 -62
-9 -27 -16 -61 -16 -77 0 -28 -13 -37 -25 -18 -3 5 -26 18 -51 29 -24 11 -88
46 -142 77 -53 32 -124 72 -157 88 -50 26 -61 36 -63 60 -2 18 0 26 7 21 7 -4
11 13 11 50 0 46 3 56 15 52 8 -4 17 -2 20 3 9 15 19 12 37 -9z m1124 -81 c38
-41 76 -84 84 -95 14 -19 14 -19 -2 -6 -20 15 -25 2 -6 -17 7 -7 9 -12 6 -12
-4 0 -21 14 -38 31 -24 24 -28 34 -18 40 9 6 7 9 -7 9 -14 0 -21 7 -22 21 -1
12 -7 27 -13 33 -8 8 -10 3 -5 -19 l7 -30 -23 35 c-13 19 -27 37 -31 38 -5 2
-8 10 -8 17 0 7 -10 15 -22 19 -19 5 -20 8 -8 15 19 13 27 7 106 -79z m-1040
59 c9 -15 -23 -10 -35 5 -10 12 -8 13 9 9 11 -3 23 -9 26 -14z m-245 -19 c5 0
9 -7 9 -15 0 -8 -7 -15 -15 -15 -10 0 -15 10 -14 33 1 17 3 24 6 15 2 -10 9
-18 14 -18z m434 0 c-3 -5 -14 -10 -23 -10 -15 0 -15 2 -2 10 20 13 33 13 25
0z m-486 -38 c0 -24 -1 -25 -9 -7 -12 28 -12 47 0 40 6 -3 10 -18 9 -33z m18
-34 c-3 -7 -5 -2 -5 12 0 14 2 19 5 13 2 -7 2 -19 0 -25z m713 16 c0 -8 -5
-12 -10 -9 -6 4 -8 11 -5 16 9 14 15 11 15 -7z m-150 -20 c0 -19 -14 -17 -34
5 -16 18 -16 18 9 14 14 -3 25 -12 25 -19z m310 -109 c0 -10 -25 7 -64 43 -20
18 -36 39 -36 46 0 8 23 -7 50 -34 28 -27 50 -51 50 -55z m-863 54 c-2 -28
-17 -42 -17 -16 0 6 -3 22 -6 35 -5 17 -3 21 9 16 10 -4 15 -16 14 -35z m611
3 c20 -31 1 -27 -22 5 -12 16 -14 24 -6 21 7 -2 20 -14 28 -26z m83 18 c18
-10 27 -40 12 -40 -10 1 -47 50 -38 50 4 0 15 -5 26 -10z m99 -44 c0 -8 -4
-17 -9 -21 -12 -7 -24 12 -16 25 9 15 25 12 25 -4z m649 -40 c5 -13 16 -26 24
-29 8 -3 54 -51 101 -106 72 -83 85 -104 77 -118 -9 -16 -10 -15 -11 7 0 21
-2 22 -11 10 -9 -13 -10 -12 -5 2 3 10 1 20 -4 23 -6 4 -10 1 -10 -5 0 -6 -4
-8 -10 -5 -5 3 -10 11 -10 16 0 6 5 7 10 4 6 -3 10 -1 10 6 0 6 -8 9 -20 6
-11 -3 -20 -1 -20 4 0 5 5 9 10 9 6 0 10 5 10 11 0 6 -8 8 -19 4 -11 -3 -24 1
-32 11 -7 9 -22 20 -34 24 -19 8 -19 9 3 9 26 1 30 21 4 21 -24 0 -77 58 -86
93 -8 34 11 37 23 3z m-822 -8 c-3 -8 -6 -5 -6 6 -1 11 2 17 5 13 3 -3 4 -12
1 -19z m283 -22 c0 -6 -4 -5 -9 3 -5 7 -14 10 -20 7 -12 -8 -15 6 -4 17 8 9
33 -12 33 -27z m-313 -26 c-3 -22 -1 -38 3 -35 5 3 14 -3 19 -14 10 -17 7 -19
-29 -23 -43 -4 -45 -1 -31 34 5 13 12 35 15 51 10 44 29 33 23 -13z m178 30
c3 -5 1 -10 -4 -10 -6 0 -11 5 -11 10 0 6 2 10 4 10 3 0 8 -4 11 -10z m-104
-74 c-13 -49 3 -46 19 4 7 22 15 40 18 40 2 0 22 -14 44 -32 53 -41 107 -78
116 -78 4 0 15 -9 25 -20 14 -17 21 -19 38 -10 16 9 20 8 18 -2 -1 -7 -1 -21
0 -31 1 -17 3 -17 23 -3 25 18 58 21 58 6 0 -5 -11 -10 -24 -10 -43 0 -38 -18
11 -46 27 -16 51 -32 55 -38 4 -6 13 -4 24 5 16 12 17 12 11 -4 -8 -21 8 -57
26 -57 16 0 105 -61 195 -134 l73 -59 30 17 c32 19 35 16 17 -13 -10 -17 -7
-23 21 -47 45 -37 92 -71 119 -85 15 -9 22 -22 23 -43 l1 -31 10 33 c8 22 17
32 32 32 31 0 43 12 48 46 4 31 4 32 -34 26 -31 -4 -38 -1 -38 12 0 9 -4 16
-9 16 -19 0 -21 -20 -6 -51 13 -23 13 -30 3 -25 -7 3 -21 9 -30 12 -10 4 -18
13 -18 21 0 8 -4 12 -9 9 -9 -6 -105 63 -98 70 2 3 17 0 32 -6 30 -11 50 -2
60 29 7 24 115 23 142 -1 26 -24 43 -23 43 2 0 11 5 20 10 20 17 0 51 40 44
51 -6 10 12 28 28 29 6 0 -2 -39 -33 -160 -6 -25 -13 -55 -14 -67 -11 -80 -32
-179 -41 -192 -2 -1 -42 24 -91 56 -48 33 -99 67 -113 76 -14 9 -44 30 -68 47
-23 16 -45 30 -47 30 -3 0 -40 24 -83 53 -42 30 -82 56 -87 58 -40 16 -595
397 -595 408 0 7 5 32 12 54 15 49 23 33 9 -17z m312 -13 c5 -25 3 -33 -8 -34
-29 -3 -33 -4 -42 -13 -5 -6 -2 -6 7 -1 13 8 13 7 1 -8 -7 -9 -17 -17 -21 -17
-16 0 -20 33 -7 49 8 9 20 31 28 48 16 38 33 28 42 -24z m77 -63 c0 -5 -9 -10
-21 -10 -11 0 -17 5 -14 10 3 6 13 10 21 10 8 0 14 -4 14 -10z m-70 -25 c-7
-9 -15 -13 -18 -10 -3 2 1 11 8 20 7 9 15 13 18 10 3 -2 -1 -11 -8 -20z
m-5034 -103 c-13 -12 -17 8 -10 40 l9 33 3 -33 c2 -19 1 -36 -2 -40z m5119 49
c3 -5 1 -12 -4 -15 -5 -3 -11 1 -15 9 -6 16 9 21 19 6z m613 -13 c6 -7 11 -17
12 -23 1 -5 6 -9 11 -7 5 1 9 -2 9 -8 0 -17 -25 -11 -43 10 -18 22 -22 40 -8
40 5 0 13 -6 19 -12z m-503 -75 c3 -13 3 -23 -2 -23 -14 0 -53 31 -53 42 0 7
6 6 15 -2 12 -10 15 -9 15 6 0 22 15 8 25 -23z m45 27 c0 -5 -5 -10 -11 -10
-5 0 -7 5 -4 10 3 6 8 10 11 10 2 0 4 -4 4 -10z m524 -25 c15 -11 16 -15 5
-16 -8 0 -22 -2 -31 -4 -20 -4 -20 -3 -12 19 7 19 13 20 38 1z m-525 -27 c1 9
4 10 14 2 6 -6 49 -37 95 -70 79 -58 98 -80 67 -80 -8 0 -15 5 -15 11 0 12
-30 38 -94 81 -29 19 -44 24 -53 17 -15 -13 -48 34 -37 52 5 9 10 7 15 -7 4
-10 8 -13 8 -6z m554 -5 c-7 -2 -19 -2 -25 0 -7 3 -2 5 12 5 14 0 19 -2 13 -5z
m17 -49 c0 -3 -7 -1 -15 6 -8 7 -15 17 -15 22 0 5 7 3 15 -6 8 -8 15 -18 15
-22z m-230 -25 c-7 -11 -14 -18 -17 -15 -3 3 0 12 7 21 18 21 23 19 10 -6z
m-20 -39 c0 -5 -2 -10 -4 -10 -3 0 -8 5 -11 10 -3 6 -1 10 4 10 6 0 11 -4 11
-10z m-25 -21 c4 -13 0 -27 -11 -40 -24 -27 -34 -24 -31 9 6 51 30 70 42 31z
m115 11 c0 -5 -5 -10 -11 -10 -5 0 -7 5 -4 10 3 6 8 10 11 10 2 0 4 -4 4 -10z
m-210 -40 c-8 -5 -17 -7 -19 -4 -3 3 1 9 9 14 8 5 17 7 19 4 3 -3 -1 -9 -9
-14z m-6320 -1639 c0 -12 -20 -25 -27 -18 -7 7 6 27 18 27 5 0 9 -4 9 -9z
m-545 -89 c-15 -16 -16 -15 -4 12 7 15 15 23 17 16 3 -7 -3 -19 -13 -28z
m-104 -563 c-6 -45 -11 -105 -12 -133 0 -28 -5 -60 -10 -71 -12 -26 -3 144 12
232 16 91 23 70 10 -28z m329 -73 c0 -15 -18 -31 -26 -23 -7 7 7 37 17 37 5 0
9 -6 9 -14z m-2576 -156 c-17 -33 -27 -40 -17 -12 6 17 23 42 28 42 2 0 -3
-13 -11 -30z m4186 -420 c0 -5 -4 -10 -10 -10 -5 0 -10 5 -10 10 0 6 5 10 10
10 6 0 10 -4 10 -10z m-950 -10 c0 -5 -2 -10 -4 -10 -3 0 -8 5 -11 10 -3 6 -1
10 4 10 6 0 11 -4 11 -10z m-1018 -35 c-2 -14 -6 -25 -8 -25 -2 0 -4 11 -4 25
0 14 4 25 9 25 4 0 6 -11 3 -25z m1215 -77 c7 -6 13 -16 12 -22 0 -7 -2 -6 -6
2 -2 6 -10 9 -15 6 -7 -4 -8 -2 -4 4 4 8 0 12 -11 12 -10 0 -25 5 -33 11 -11
8 -8 9 15 4 16 -4 36 -11 42 -17z m58 -48 c3 -6 -1 -7 -9 -4 -18 7 -21 14 -7
14 6 0 13 -4 16 -10z m135 -64 c0 -3 -4 -8 -10 -11 -5 -3 -10 -1 -10 4 0 6 5
11 10 11 6 0 10 -2 10 -4z m30 0 c0 -3 -4 -8 -10 -11 -5 -3 -10 -1 -10 4 0 6
5 11 10 11 6 0 10 -2 10 -4z m10 -36 c0 -5 -7 -7 -15 -4 -8 4 -15 8 -15 10 0
2 7 4 15 4 8 0 15 -4 15 -10z m180 -100 c0 -5 -2 -10 -4 -10 -3 0 -8 5 -11 10
-3 6 -1 10 4 10 6 0 11 -4 11 -10z m500 -50 c0 -5 -4 -10 -10 -10 -5 0 -10 5
-10 10 0 6 5 10 10 10 6 0 10 -4 10 -10z m-365 -11 c11 -17 -1 -21 -15 -4 -8
9 -8 15 -2 15 6 0 14 -5 17 -11z m370 -19 c-3 -5 -12 -10 -18 -10 -7 0 -6 4 3
10 19 12 23 12 15 0z m-305 -41 c0 -4 -7 -6 -15 -3 -8 4 -15 10 -15 15 0 4 7
6 15 3 8 -4 15 -10 15 -15z m223 -29 c-3 -12 -8 -19 -11 -16 -5 6 5 36 12 36
2 0 2 -9 -1 -20z m-158 0 c-3 -5 -10 -10 -16 -10 -5 0 -9 5 -9 10 0 6 7 10 16
10 8 0 12 -4 9 -10z m62 -36 c-3 -3 -12 -4 -19 -1 -8 3 -5 6 6 6 11 1 17 -2
13 -5z m33 -4 c0 -5 -2 -10 -4 -10 -3 0 -8 5 -11 10 -3 6 -1 10 4 10 6 0 11
-4 11 -10z"/>
<path d="M5793 8984 c-13 -3 -23 -11 -23 -18 0 -18 92 -103 127 -118 15 -7 39
-20 52 -30 13 -10 28 -18 33 -18 13 0 -42 45 -65 53 -10 4 -16 11 -12 16 5 10
59 -3 80 -19 6 -5 37 -5 70 0 33 4 55 8 48 9 -6 0 -16 15 -22 33 -9 24 -14 29
-23 20 -18 -18 -28 -15 -28 8 0 11 -7 20 -15 20 -8 0 -15 -5 -15 -10 0 -6 -6
-5 -14 2 -12 11 -11 14 3 19 44 18 -132 47 -196 33z"/>
<path d="M9873 7992 c-13 -2 -23 -8 -23 -13 0 -6 -4 -7 -10 -4 -5 3 -10 -2
-10 -11 0 -30 88 -101 183 -148 103 -51 216 -84 325 -93 l72 -6 0 31 c0 37
-34 80 -97 122 -39 27 -89 47 -258 105 -40 14 -140 23 -182 17z"/>
<path d="M9340 5205 c0 -8 -4 -15 -9 -15 -5 0 -11 -12 -14 -27 l-5 -27 19 25
c17 22 26 59 14 59 -3 0 -5 -7 -5 -15z"/>
<path d="M6155 5750 c-3 -5 -1 -10 4 -10 6 0 11 5 11 10 0 6 -2 10 -4 10 -3 0
-8 -4 -11 -10z"/>
<path d="M5572 3050 c0 -14 2 -19 5 -12 2 6 2 18 0 25 -3 6 -5 1 -5 -13z"/>
<path d="M5546 2913 c-6 -14 -5 -15 5 -6 7 7 10 15 7 18 -3 3 -9 -2 -12 -12z"/>
<path d="M5215 2200 c-3 -5 -1 -10 4 -10 6 0 11 5 11 10 0 6 -2 10 -4 10 -3 0
-8 -4 -11 -10z"/>
<path d="M5145 2091 c-16 -9 -84 -34 -150 -55 -66 -22 -142 -50 -170 -63 -45
-21 -47 -23 -15 -17 19 4 47 13 62 20 15 8 34 14 42 14 8 0 57 14 108 30 51
17 110 35 131 41 20 5 37 16 37 24 0 22 -13 24 -45 6z"/>
<path d="M4718 1933 c6 -2 18 -2 25 0 6 3 1 5 -13 5 -14 0 -19 -2 -12 -5z"/>
<path d="M4600 1900 c-12 -8 -11 -10 7 -10 12 0 25 5 28 10 8 13 -15 13 -35 0z"/>
<path d="M6222 1878 c-7 -7 -12 -16 -12 -21 0 -12 142 -179 147 -173 7 6 -77
136 -88 136 -4 0 -10 13 -14 30 -8 35 -18 43 -33 28z"/>
<path d="M4500 1870 c-13 -9 -13 -10 0 -9 8 0 24 4 35 9 l20 9 -20 0 c-11 0
-27 -4 -35 -9z"/>
<path d="M4778 1863 c7 -3 16 -2 19 1 4 3 -2 6 -13 5 -11 0 -14 -3 -6 -6z"/>
<path d="M4320 1810 c-8 -5 -12 -12 -9 -15 4 -3 12 1 19 10 14 17 11 19 -10 5z"/>
<path d="M5551 1794 c0 -11 3 -14 6 -6 3 7 2 16 -1 19 -3 4 -6 -2 -5 -13z"/>
<path d="M5780 1785 c0 -9 -11 -20 -25 -25 -14 -5 -28 -18 -32 -27 -5 -16 -30
-75 -41 -97 -3 -5 1 -5 8 -1 10 6 12 4 7 -8 -3 -10 -3 -17 1 -17 14 0 32 24
32 42 0 11 9 31 20 46 27 37 53 102 40 102 -5 0 -10 -7 -10 -15z"/>
<path d="M4230 1778 c-14 -6 -20 -12 -13 -15 6 -2 24 3 40 11 32 17 11 20 -27
4z"/>
<path d="M4168 1753 c7 -3 16 -2 19 1 4 3 -2 6 -13 5 -11 0 -14 -3 -6 -6z"/>
<path d="M4100 1734 l-25 -15 25 7 c14 3 29 10 35 15 15 14 -7 10 -35 -7z"/>
<path d="M4030 1710 c-18 -12 -2 -12 25 0 13 6 15 9 5 9 -8 0 -22 -4 -30 -9z"/>
<path d="M3973 1693 c-12 -2 -27 -11 -35 -20 -11 -14 -10 -15 10 -9 12 3 31 9
42 12 18 5 30 26 13 23 -5 -1 -18 -4 -30 -6z"/>
<path d="M3802 1633 c-40 -14 -71 -27 -68 -30 2 -3 32 4 65 16 34 12 70 21 80
21 11 0 23 5 26 10 10 16 -24 10 -103 -17z"/>
<path d="M3520 1529 c0 -5 5 -7 10 -4 6 3 10 8 10 11 0 2 -4 4 -10 4 -5 0 -10
-5 -10 -11z"/>
<path d="M3480 1520 c-13 -8 -12 -10 3 -10 9 0 17 5 17 10 0 12 -1 12 -20 0z"/>
<path d="M3445 1500 c3 -5 11 -10 16 -10 6 0 7 5 4 10 -3 6 -11 10 -16 10 -6
0 -7 -4 -4 -10z"/>
<path d="M3232 1433 c-40 -14 -72 -27 -70 -28 5 -5 121 29 143 42 30 18 8 14
-73 -14z"/>
<path d="M5426 1224 c-11 -28 -6 -38 9 -18 8 10 15 22 15 27 0 13 -18 7 -24
-9z"/>
<path d="M6705 1230 c3 -5 8 -10 11 -10 2 0 4 5 4 10 0 6 -5 10 -11 10 -5 0
-7 -4 -4 -10z"/>
<path d="M7220 618 c0 -9 5 -20 10 -23 13 -8 13 5 0 25 -8 13 -10 13 -10 -2z"/>
<path d="M7821 5414 c0 -11 3 -14 6 -6 3 7 2 16 -1 19 -3 4 -6 -2 -5 -13z"/>
<path d="M7812 5370 c0 -14 2 -19 5 -12 2 6 2 18 0 25 -3 6 -5 1 -5 -13z"/>
<path d="M12110 4235 c0 -8 4 -15 10 -15 5 0 7 7 4 15 -4 8 -8 15 -10 15 -2 0
-4 -7 -4 -15z"/>
<path d="M12290 4020 c0 -5 5 -10 10 -10 6 0 10 5 10 10 0 6 -4 10 -10 10 -5
0 -10 -4 -10 -10z"/>
<path d="M12534 3642 c4 -7 2 -12 -3 -12 -6 0 -11 -8 -11 -18 0 -10 -5 -23
-11 -29 -8 -8 -8 -13 0 -17 6 -4 11 -5 11 -3 0 3 7 21 15 40 11 26 12 38 3 43
-7 4 -8 3 -4 -4z"/>
<path d="M12307 3582 c-24 -26 -21 -32 14 -32 26 0 30 3 27 22 -4 29 -21 33
-41 10z"/>
<path d="M12420 3348 c0 -4 4 -8 9 -8 6 0 12 4 15 8 3 5 -1 9 -9 9 -8 0 -15
-4 -15 -9z"/>
</g>
</svg>
